<svg width="445" height="445" viewBox="0 0 445 445" fill="none" xmlns="http://www.w3.org/2000/svg">
<circle cx="222.5" cy="222.5" r="222.5" fill="#61C4B7"/>
<mask id="mask0_11_253" style="mask-type:luminance" maskUnits="userSpaceOnUse" x="0" y="0" width="445" height="445">
<circle cx="222.5" cy="222.5" r="222.5" fill="white"/>
</mask>
<g mask="url(#mask0_11_253)">
<circle cx="97" cy="136" r="28" stroke="#030303" stroke-width="8"/>
<rect x="1" y="104" width="64" height="64" fill="#EB7565"/>
<rect x="1" y="168" width="8" height="8" fill="#030303"/>
<rect x="29" y="168" width="8" height="8" fill="#030303"/>
<rect x="57" y="168" width="8" height="8" fill="#030303"/>
<rect x="1" y="196" width="8" height="8" fill="#030303"/>
<rect x="29" y="196" width="8" height="8" fill="#030303"/>
<rect x="57" y="196" width="8" height="8" fill="#030303"/>
<rect x="1" y="224" width="8" height="8" fill="#030303"/>
<rect x="29" y="224" width="8" height="8" fill="#030303"/>
<rect x="57" y="224" width="8" height="8" fill="#030303"/>
<path fill-rule="evenodd" clip-rule="evenodd" d="M65 168L129 232V168H65Z" fill="#FFF7F0"/>
<rect x="317" y="296" width="128" height="64" rx="32" fill="#552049"/>
<circle cx="413" cy="328" r="28" stroke="#FFF7F0" stroke-width="8"/>
<rect x="317" y="260" width="8" height="8" fill="#030303"/>
<rect x="325" y="260" width="8" height="8" fill="#030303"/>
<rect x="373" y="260" width="8" height="8" fill="#030303"/>
<path fill-rule="evenodd" clip-rule="evenodd" d="M381 232L445 296V232H381Z" fill="#F6A560"/>
<rect x="381" y="260" width="8" height="8" fill="#030303"/>
<rect x="429" y="260" width="8" height="8" fill="#030303"/>
<rect x="437" y="260" width="8" height="8" fill="#030303"/>
</g>
</svg>
